<?xml version="1.0" encoding="UTF-8" standalone="no"?>
<!-- Created with Inkscape (http://www.inkscape.org/) -->

<svg
   width="210mm"
   height="297mm"
   viewBox="0 0 210 297"
   version="1.1"
   id="svg5"
   inkscape:version="1.1 (c68e22c387, 2021-05-23)"
   sodipodi:docname="NESS Logo no space.svg"
   xmlns:inkscape="http://www.inkscape.org/namespaces/inkscape"
   xmlns:sodipodi="http://sodipodi.sourceforge.net/DTD/sodipodi-0.dtd"
   xmlns:xlink="http://www.w3.org/1999/xlink"
   xmlns="http://www.w3.org/2000/svg"
   xmlns:svg="http://www.w3.org/2000/svg">
  <sodipodi:namedview
     id="namedview7"
     pagecolor="#ffffff"
     bordercolor="#666666"
     borderopacity="1.0"
     inkscape:pageshadow="2"
     inkscape:pageopacity="0.0"
     inkscape:pagecheckerboard="0"
     inkscape:document-units="mm"
     showgrid="false"
     inkscape:zoom="0.77682379"
     inkscape:cx="396.48631"
     inkscape:cy="252.95312"
     inkscape:window-width="1842"
     inkscape:window-height="1057"
     inkscape:window-x="70"
     inkscape:window-y="-8"
     inkscape:window-maximized="1"
     inkscape:current-layer="layer1" />
  <defs
     id="defs2">
    <rect
       x="441.74312"
       y="167.88991"
       width="799.54128"
       height="229.81651"
       id="rect7826" />
  </defs>
  <g
     inkscape:label="Layer 1"
     inkscape:groupmode="layer"
     id="layer1">
    <g
       id="g76"
       transform="matrix(0.26458333,0,0,0.26458333,-5.7613274,-42.448701)"
       inkscape:export-filename="C:\Users\Rico\g76.png"
       inkscape:export-xdpi="300"
       inkscape:export-ydpi="300">
      <g
         id="Base"
         class="st0">
	<g
   class="st1"
   id="g5">
		
			<image
   style="overflow:visible"
   width="512"
   height="512"
   id="qATk0N"
   xlink:href="F65AF092E76293CE.png"
   transform="scale(1.1719)">
		</image>

	</g>

</g>
      <g
         id="Helplines"
         class="st0">
	<line
   class="st2"
   x1="410.26001"
   y1="540.82001"
   x2="0"
   y2="303.89999"
   id="line8" />

	<line
   class="st2"
   x1="410.26001"
   y1="600"
   x2="0"
   y2="363.07999"
   id="line10" />

</g>
      <g
         id="Vector"
         transform="matrix(0.51654771,0,0,0.51654771,-27.065829,129.03896)">
	<g
   id="g15">
		<path
   class="st3"
   d="m 504.89,314.58 c 0,2.2 -1.45,2.94 -3.23,1.64 l -44.03,-32.26 c -1.77,-1.3 -3.23,-4.16 -3.23,-6.36 v -61.46 c 0,-2.2 -1.56,-4.9 -3.46,-6 L 303.35,124.9 c -1.91,-1.1 -5.03,-1.1 -6.93,-0.01 l -148.47,85.16 c -1.91,1.09 -3.47,3.79 -3.47,5.99 v 5.63 c 0,2.2 1.44,5.08 3.19,6.41 l 171.77,129.48 c 1.76,1.32 4.99,2.41 7.19,2.41 h 10.93 c 2.2,0 4,-1.8 4,-4 V 173.31 c 0,-2.2 1.57,-3.12 3.49,-2.04 l 46.21,26.02 c 1.92,1.08 3.49,3.76 3.49,5.96 V 406.6 c 0,2.2 -1.8,4 -4,4 h -77.33 c -2.2,0 -5.44,-1.08 -7.2,-2.4 L 98.08,251.85 c -1.76,-1.32 -3.2,-4.2 -3.2,-6.4 V 185.5 c 0,-2.2 1.56,-4.9 3.47,-5.99 L 296.71,65.63 c 1.91,-1.1 5.03,-1.09 6.93,0.01 L 501.42,180.1 c 1.9,1.1 3.46,3.8 3.46,6 v 128.48 z"
   id="path13" />

	</g>

	<g
   id="g28">
		<linearGradient
   id="SVGID_1_"
   gradientUnits="userSpaceOnUse"
   x1="96.990196"
   y1="318.38708"
   x2="321.8988"
   y2="318.38708">
			<stop
   offset="0.287"
   style="stop-color:#181716;stop-opacity:0"
   id="stop17" />

			<stop
   offset="0.5795"
   style="stop-color:#181716"
   id="stop19" />

			<stop
   offset="0.6489"
   style="stop-color:#111010;stop-opacity:0.7467"
   id="stop21" />

			<stop
   offset="0.8534"
   style="stop-color:#000000;stop-opacity:0"
   id="stop23" />

		</linearGradient>

		<path
   class="st4"
   d="m 321.74,364.36 c 0.56,-2.13 -0.43,-4.95 -2.18,-6.28 L 147.79,228.6 c -1.76,-1.32 -4.82,-1.63 -6.8,-0.68 l -42.38,20.32 c -1.98,0.95 -2.17,2.81 -0.41,4.13 l 208.15,156.35 c 1.76,1.32 3.65,0.66 4.21,-1.47 z"
   id="path26"
   style="fill:url(#SVGID_1_)" />

	</g>

	<g
   id="g32">
		<path
   class="st3"
   d="m 95,285.47 c 0,-2.2 1.45,-2.94 3.23,-1.64 l 44.03,32.26 c 1.77,1.3 3.23,4.16 3.23,6.36 v 61.46 c 0,2.2 1.56,4.9 3.46,6 l 147.59,85.23 c 1.91,1.1 5.03,1.1 6.93,0.01 L 451.94,390 c 1.91,-1.09 3.47,-3.79 3.47,-5.99 v -5.63 c 0,-2.2 -1.44,-5.08 -3.19,-6.41 L 280.44,242.48 c -1.76,-1.32 -4.99,-2.41 -7.19,-2.41 h -10.93 c -2.2,0 -4,1.8 -4,4 v 182.66 c 0,2.2 -1.57,3.12 -3.49,2.04 l -46.21,-26.02 c -1.92,-1.08 -3.49,-3.76 -3.49,-5.96 V 193.44 c 0,-2.2 1.8,-4 4,-4 h 77.33 c 2.2,0 5.44,1.08 7.2,2.4 L 501.8,348.19 c 1.76,1.32 3.2,4.2 3.2,6.4 v 59.95 c 0,2.2 -1.56,4.9 -3.47,5.99 L 303.17,534.42 c -1.91,1.1 -5.03,1.09 -6.93,-0.01 L 98.46,419.95 c -1.9,-1.1 -3.46,-3.8 -3.46,-6 z"
   id="path30" />

	</g>

	<g
   id="g45">
		<linearGradient
   id="SVGID_2_"
   gradientUnits="userSpaceOnUse"
   x1="233.0558"
   y1="274.12479"
   x2="457.96439"
   y2="274.12479">
			<stop
   offset="0.287"
   style="stop-color:#181716;stop-opacity:0"
   id="stop34" />

			<stop
   offset="0.5795"
   style="stop-color:#181716"
   id="stop36" />

			<stop
   offset="0.6489"
   style="stop-color:#111010;stop-opacity:0.7467"
   id="stop38" />

			<stop
   offset="0.8534"
   style="stop-color:#000000;stop-opacity:0"
   id="stop40" />

		</linearGradient>

		<path
   class="st5"
   d="m 457.81,320.1 c 0.56,-2.13 -0.43,-4.95 -2.18,-6.28 L 283.85,184.34 c -1.76,-1.32 -4.82,-1.63 -6.8,-0.68 l -42.38,20.32 c -1.98,0.95 -2.17,2.81 -0.41,4.13 l 208.15,156.35 c 1.76,1.32 3.65,0.66 4.21,-1.47 z"
   id="path43"
   style="fill:url(#SVGID_2_)" />

	</g>

	<g
   id="g49">
		<path
   class="st3"
   d="m 344.48,362.72 c -1.59,-1.52 -2.9,-4.56 -2.9,-6.76 V 173.31 c 0,-2.2 1.57,-3.12 3.49,-2.04 l 46.21,26.02 c 1.92,1.08 3.49,3.76 3.49,5.96 V 406.6 c 0,2.2 -1.3,2.76 -2.9,1.24 z"
   id="path47" />

	</g>

</g>
      <path
         id="text7824"
         style="font-style:normal;font-weight:normal;font-size:113.333px;line-height:0.75;font-family:sans-serif;white-space:pre;shape-inside:url(#rect7826);fill:#46a1d6;fill-opacity:1;stroke:none;stroke-width:0.453314"
         d="m 248.36186,246.77497 v 35.96262 h 5.65176 v -12.1762 h 10.17155 c 4.62379,0 8.0148,-0.95831 10.17256,-2.87633 2.19201,-1.91801 3.28795,-4.94978 3.28795,-9.09406 0,-4.11003 -1.07873,-7.10639 -3.2365,-8.99015 -2.15776,-1.88376 -5.53157,-2.82588 -10.12111,-2.82588 z m 208.68629,0 v 35.96262 h 5.54885 v -14.64191 c 0,-2.63726 -0.0344,-5.23998 -0.10291,-7.80875 -0.0685,-2.56877 -0.20612,-4.93266 -0.41162,-7.09042 h 0.10291 c 0.58225,0.99325 1.25014,2.07299 2.00363,3.2375 0.75352,1.16451 1.55902,2.36265 2.41527,3.59566 0.89051,1.233 1.78101,2.48376 2.67153,3.75103 0.92475,1.26725 1.83246,2.48259 2.72296,3.6471 l 11.40541,15.30979 h 5.90802 v -35.96262 h -5.54885 v 14.64191 c 0,2.63727 0.0344,5.23998 0.1029,7.80875 0.0686,2.56876 0.22232,4.93266 0.46207,7.09042 h -0.15436 c -0.58225,-0.99325 -1.25013,-2.07198 -2.00364,-3.23649 -0.7535,-1.16451 -1.5752,-2.36366 -2.4657,-3.59667 -0.85626,-1.233 -1.74677,-2.46554 -2.67152,-3.69856 -0.89051,-1.26726 -1.78102,-2.50081 -2.67153,-3.69957 l -11.40541,-15.30979 z m 82.50841,4.88098 c -4.31555,0 -7.43231,0.70228 -9.35032,2.10654 -1.88377,1.37001 -2.82488,3.40705 -2.82488,6.11282 0,1.60976 0.30764,2.94552 0.92414,4.00728 0.61651,1.06176 1.4382,1.93506 2.46571,2.62006 1.06176,0.68501 2.29529,1.25069 3.69958,1.69593 1.40423,0.41102 2.91106,0.77025 4.52077,1.0785 1.47278,0.274 2.72252,0.54823 3.75003,0.82224 1.02752,0.23975 1.85023,0.5484 2.46673,0.92515 0.65074,0.37675 1.11321,0.822 1.38719,1.33576 0.27402,0.51375 0.41065,1.16443 0.41065,1.95219 0,1.644 -0.58189,2.75714 -1.74639,3.33939 -1.16451,0.54801 -3.04873,0.82224 -5.65176,0.82224 -2.19203,0 -4.19566,-0.20643 -6.01091,-0.61744 -1.78102,-0.44524 -3.45883,-1.00992 -5.03433,-1.69492 l -1.64448,4.57226 c 1.84951,0.82201 3.80155,1.45548 5.85656,1.90073 2.08929,0.411 4.36716,0.61643 6.83316,0.61643 4.3498,0 7.55254,-0.71849 9.60758,-2.15699 2.08928,-1.43852 3.13358,-3.73359 3.13358,-6.88461 0,-1.43851 -0.23983,-2.67206 -0.71934,-3.69958 -0.47946,-1.06175 -1.19896,-1.96845 -2.15798,-2.72196 -0.92478,-0.7535 -2.12291,-1.38799 -3.59564,-1.90175 -1.43853,-0.54799 -3.13451,-1.01045 -5.08681,-1.3872 -1.26724,-0.23976 -2.39761,-0.47858 -3.39082,-0.71832 -0.99327,-0.23976 -1.8494,-0.53119 -2.56863,-0.8737 -0.685,-0.3425 -1.21529,-0.75335 -1.592,-1.23285 -0.34253,-0.47951 -0.51354,-1.09679 -0.51354,-1.8503 0,-1.19875 0.51307,-2.05486 1.54059,-2.56861 1.02746,-0.548 2.77406,-0.82123 5.24011,-0.82123 1.8495,0 3.61331,0.17102 5.29157,0.51352 1.67827,0.30825 3.3915,0.75351 5.13825,1.33576 l 1.54055,-4.36746 c -1.64402,-0.65074 -3.45844,-1.181 -5.44492,-1.592 -1.98654,-0.44526 -4.14499,-0.66788 -6.474,-0.66788 z m 30.51665,0 c -4.31549,0 -7.43228,0.70228 -9.35028,2.10654 -1.8838,1.37001 -2.8249,3.40705 -2.8249,6.11282 0,1.60976 0.30766,2.94552 0.92416,4.00728 0.6165,1.06176 1.4392,1.93506 2.46672,2.62006 1.06172,0.68501 2.2943,1.25069 3.69854,1.69593 1.40428,0.41102 2.91105,0.77025 4.52082,1.0785 1.47273,0.274 2.7235,0.54823 3.75101,0.82224 1.02752,0.23975 1.84919,0.5484 2.46569,0.92515 0.65075,0.37675 1.11321,0.822 1.38725,1.33576 0.27397,0.51375 0.4106,1.16443 0.4106,1.95219 0,1.644 -0.58189,2.75714 -1.7464,3.33939 -1.1645,0.54801 -3.04871,0.82224 -5.65176,0.82224 -2.19201,0 -4.19565,-0.20643 -6.0109,-0.61744 -1.78101,-0.44524 -3.45881,-1.00992 -5.03433,-1.69492 l -1.64448,4.57226 c 1.8495,0.82201 3.80257,1.45548 5.8576,1.90073 2.08922,0.411 4.36612,0.61643 6.83211,0.61643 4.3498,0 7.5526,-0.71849 9.60759,-2.15699 2.08928,-1.43852 3.13358,-3.73359 3.13358,-6.88461 0,-1.43851 -0.23978,-2.67206 -0.71929,-3.69958 -0.47952,-1.06175 -1.19798,-1.96845 -2.15701,-2.72196 -0.92477,-0.7535 -2.12388,-1.38799 -3.59666,-1.90175 -1.43854,-0.54799 -3.13353,-1.01045 -5.08578,-1.3872 -1.26724,-0.23976 -2.39761,-0.47858 -3.39087,-0.71832 -0.99322,-0.23976 -1.84935,-0.53119 -2.56858,-0.8737 -0.685,-0.3425 -1.21627,-0.75335 -1.59304,-1.23285 -0.34252,-0.47951 -0.5135,-1.09679 -0.5135,-1.8503 0,-1.19875 0.51304,-2.05486 1.54055,-2.56861 1.02752,-0.548 2.7751,-0.82123 5.24115,-0.82123 1.8495,0 3.61331,0.17102 5.29157,0.51352 1.67826,0.30825 3.39046,0.75351 5.13722,1.33576 l 1.54158,-4.36746 c -1.64401,-0.65074 -3.45942,-1.181 -5.44595,-1.592 -1.98649,-0.44526 -4.14499,-0.66788 -6.47401,-0.66788 z m -316.11104,0.0514 h 10.27445 c 2.87702,0 4.89787,0.53026 6.06238,1.59202 1.16451,1.06175 1.74739,2.82557 1.74739,5.29158 0,2.46602 -0.60009,4.26424 -1.79884,5.3945 -1.19876,1.096 -3.23682,1.64447 -6.11383,1.64447 h -10.17155 z m 30.92728,0.46207 v 30.56812 h 5.4974 v -11.66167 h 8.37372 l 7.4496,11.66167 h 5.95946 l -7.80874,-12.12475 c 1.95225,-0.44526 3.57946,-1.38635 4.88096,-2.82487 1.33576,-1.47275 2.00364,-3.4936 2.00364,-6.06237 0,-1.67826 -0.20541,-3.11724 -0.61643,-4.316 -0.41099,-1.23301 -1.07887,-2.22572 -2.00363,-2.97923 -0.89051,-0.78775 -2.05525,-1.35342 -3.49376,-1.69593 -1.40426,-0.37676 -3.11647,-0.56497 -5.13723,-0.56497 z m 34.16479,0 v 30.56812 h 5.3945 v -30.56812 z m 10.99379,0 12.89554,30.56812 h 6.06238 l 12.94697,-30.56812 h -5.85757 l -6.37007,15.51559 c -0.37676,0.95901 -0.736,1.86673 -1.0785,2.72298 l -0.92514,2.46571 c -0.27401,0.82201 -0.54825,1.66091 -0.82225,2.51716 -0.274,0.822 -0.54823,1.69531 -0.82224,2.62006 h -0.15334 c -0.37676,-1.47275 -0.75421,-2.79131 -1.13096,-3.95582 -0.37675,-1.19876 -0.8554,-2.51731 -1.43766,-3.95583 l -7.44958,-17.92985 z m 44.3888,0 -13.3576,30.56812 h 5.85656 l 2.87734,-6.7817 h 15.25833 l 2.92879,6.7817 h 5.80511 l -13.30615,-30.56812 z m 18.49484,0 v 4.88096 l 11.14815,-0.1029 v 25.79006 h 5.49739 v -25.79006 l 11.09771,0.1029 v -4.88096 z m 33.29109,0 v 30.56812 h 23.01664 v -4.82952 h -17.57069 v -8.01456 h 16.43974 v -4.82851 h -16.43974 v -8.06602 h 17.31342 v -4.82951 z m 72.28541,0 v 30.56812 h 23.01563 v -4.82952 h -17.56969 v -8.01456 h 16.43974 v -4.82851 h -16.43974 v -8.06602 h 17.31343 v -4.82951 z m -208.22422,4.72661 h 9.65903 c 2.26052,0 3.81891,0.37644 4.67517,1.12995 0.85626,0.71925 1.28431,1.93561 1.28431,3.64812 0,1.71251 -0.44526,2.92785 -1.33576,3.64711 -0.85626,0.71925 -2.39745,1.0795 -4.62372,1.0795 h -9.65903 z m 87.13212,0 h 0.1029 c 0.411,1.40426 0.82185,2.67121 1.23285,3.80147 0.44526,1.096 0.92492,2.24355 1.43867,3.44231 l 0.82224,1.95218 1.12995,2.77442 1.13095,2.67153 h -11.55977 c 0.37676,-0.89051 0.71879,-1.76382 1.02704,-2.62007 0.3425,-0.85626 0.70275,-1.72955 1.07951,-2.62007 l 0.77078,-1.90073 c 0.51376,-1.30151 0.99241,-2.51786 1.43766,-3.64812 0.44526,-1.13026 0.90771,-2.41441 1.38722,-3.85292 z m -129.05421,29.37461 v 35.96262 h 5.54885 v -14.64191 c 0,-2.63726 -0.0344,-5.23998 -0.1029,-7.80874 -0.0685,-2.56877 -0.20612,-4.93267 -0.41163,-7.09043 h 0.10291 c 0.58226,0.99326 1.25014,2.07199 2.00364,3.23649 0.75351,1.16451 1.55901,2.36366 2.41527,3.59667 0.8905,1.23301 1.78101,2.48275 2.67152,3.75002 0.92475,1.26725 1.83246,2.48361 2.72297,3.64811 l 11.40541,15.30979 h 5.90802 v -35.96262 h -5.54886 v 14.64192 c 0,2.63726 0.0344,5.23997 0.10291,7.80874 0.0686,2.56877 0.22232,4.93266 0.46207,7.09043 h -0.15436 c -0.58225,-0.99326 -1.25013,-2.073 -2.00363,-3.2375 -0.75352,-1.16452 -1.57521,-2.36266 -2.46571,-3.59567 -0.85626,-1.233 -1.74677,-2.46655 -2.67153,-3.69956 -0.8905,-1.26726 -1.78101,-2.49981 -2.67152,-3.69857 l -11.40542,-15.30976 z m 165.78761,4.88098 c -2.67152,0 -4.96559,0.34204 -6.88361,1.02704 -1.91801,0.685 -3.4936,1.67873 -4.72661,2.98023 -1.23301,1.26727 -2.15792,2.80845 -2.77443,4.62372 -0.58224,1.78101 -0.87369,3.76745 -0.87369,5.95946 v 2.41425 c 0,2.22627 0.29145,4.22992 0.87369,6.01093 0.61651,1.78101 1.54142,3.3222 2.77443,4.6237 1.23301,1.26727 2.8086,2.24378 4.72661,2.92879 1.91802,0.68501 4.21209,1.02705 6.88361,1.02705 2.67151,0 4.94939,-0.34204 6.83315,-1.02705 1.91802,-0.68501 3.4936,-1.66152 4.72662,-2.92879 1.23301,-1.3015 2.14072,-2.84269 2.72297,-4.6237 0.58226,-1.78101 0.87369,-3.78466 0.87369,-6.01093 v -2.41425 c 0,-2.19201 -0.29143,-4.17845 -0.87369,-5.95946 -0.58225,-1.81527 -1.48996,-3.35645 -2.72297,-4.62372 -1.23302,-1.3015 -2.8086,-2.29523 -4.72662,-2.98023 -1.88376,-0.685 -4.16164,-1.02704 -6.83315,-1.02704 z m -124.32759,0.51352 v 30.56812 h 23.01563 v -4.82952 h -17.56968 v -8.01456 h 16.43973 v -4.8285 h -16.43973 v -8.06603 h 17.31343 v -4.82951 z m 27.17727,0 v 4.88097 l 11.14816,-0.10291 v 25.79006 h 5.49739 V 296.4432 l 11.0977,0.10291 v -4.88097 z m 30.61958,0 9.81239,30.56812 h 5.6003 l 4.72662,-13.46051 c 0.685,-1.95225 1.31847,-3.86989 1.90073,-5.75365 0.58225,-1.91802 1.06191,-3.92165 1.43867,-6.01092 h 0.15436 c 0.30824,2.05501 0.78791,4.04145 1.43866,5.95947 0.65075,1.91801 1.31863,3.85285 2.00363,5.8051 l 4.72663,13.46051 h 5.54783 l 9.8134,-30.56812 h -5.65175 l -2.158,6.7817 c -0.71926,2.26052 -1.43874,4.53739 -2.15801,6.83216 -0.58225,1.88376 -1.11251,3.75079 -1.59201,5.6003 -0.4795,1.81527 -0.89035,3.75009 -1.23285,5.80511 -0.27401,-0.99326 -0.58264,-2.1236 -0.92514,-3.39085 -0.30826,-1.30151 -0.6169,-2.44804 -0.92515,-3.4413 -0.65076,-2.36327 -1.38644,-4.67555 -2.20845,-6.93607 l -4.00728,-11.25105 h -5.44594 l -4.00728,11.25105 c -0.78775,2.26052 -1.52446,4.48679 -2.20946,6.6788 -0.685,2.15777 -1.26687,4.52065 -1.74637,7.08942 h -0.15436 c -0.3425,-2.08927 -0.75335,-4.02409 -1.23285,-5.80511 -0.44526,-1.81526 -0.97653,-3.68229 -1.59303,-5.6003 l -4.26353,-13.61386 z m 89.03386,0 v 30.56812 h 5.49639 v -11.66268 h 8.37473 l 7.44959,11.66268 h 5.95946 l -7.80975,-12.12475 c 1.95226,-0.44525 3.57946,-1.38736 4.88096,-2.82588 1.33576,-1.47275 2.00364,-3.49259 2.00364,-6.06136 0,-1.67826 -0.20541,-3.11724 -0.61642,-4.316 -0.411,-1.233 -1.07888,-2.22673 -2.00364,-2.98023 -0.89051,-0.78776 -2.05525,-1.35242 -3.49376,-1.69493 -1.40426,-0.37675 -3.11647,-0.56497 -5.13723,-0.56497 z m 34.06188,0 v 30.56812 h 5.54784 v -9.19596 l 6.26818,-5.80612 10.27446,15.00208 h 6.474 l -12.89553,-18.64918 12.79263,-11.91894 h -7.03897 l -15.87477,14.74481 v -14.74481 z m -56.565,4.26353 c 1.78101,0 3.2888,0.22264 4.5218,0.66788 1.23301,0.44526 2.22574,1.09695 2.97924,1.9532 0.78776,0.82201 1.35343,1.84913 1.69593,3.08214 0.3425,1.19876 0.51352,2.56892 0.51352,4.11018 v 2.41425 c 0,1.54127 -0.17102,2.92864 -0.51352,4.16165 -0.3425,1.19876 -0.90817,2.22588 -1.69593,3.08214 -0.7535,0.822 -1.74623,1.45548 -2.97924,1.90072 -1.233,0.44526 -2.74079,0.66788 -4.5218,0.66788 -1.81526,0 -3.33925,-0.22262 -4.57226,-0.66788 -1.233,-0.44524 -2.24292,-1.07872 -3.03068,-1.90072 -0.75351,-0.85626 -1.30197,-1.88338 -1.64448,-3.08214 -0.3425,-1.23301 -0.51352,-2.62038 -0.51352,-4.16165 v -2.41425 c 0,-1.54126 0.17102,-2.91142 0.51352,-4.11018 0.34251,-1.23301 0.89097,-2.26013 1.64448,-3.08214 0.78776,-0.85625 1.79768,-1.50794 3.03068,-1.9532 1.23301,-0.44524 2.757,-0.66788 4.57226,-0.66788 z m 27.89761,0.46308 h 9.65803 c 2.26052,0 3.8189,0.37645 4.67516,1.12995 0.85626,0.71925 1.28431,1.93561 1.28431,3.64812 0,1.71251 -0.44526,2.92785 -1.33576,3.64711 -0.85626,0.71926 -2.39745,1.0795 -4.62371,1.0795 h -9.65803 z" />
    </g>
  </g>
  <style
     type="text/css"
     id="style2">
	.st0{display:none;}
	.st1{display:inline;}
	.st2{display:inline;fill:none;}
	.st3{fill:#46A1D6;}
	.st4{fill:url(#SVGID_1_);}
	.st5{fill:url(#SVGID_2_);}
</style>
</svg>
